<svg version="1.1"
  xmlns="http://www.w3.org/2000/svg"
  xmlns:xlink="http://www.w3.org/1999/xlink" width="1000" height="1000">
  <defs/>
  <g>
    <path fill="none" stroke="#eee" paint-order="fill stroke markers" d=" M 950 500 A 450 450 0 1 1 949.9997750000188 499.55000007499973" stroke-miterlimit="10" stroke-width="16" stroke-dasharray=""/>
    <path fill="none" stroke="#eee" paint-order="fill stroke markers" d=" M 391.7852435536812 843.3505009276437 A 360 360 0 1 1 614.2687838052846 158.61657180281713" stroke-miterlimit="10" stroke-width="16" stroke-dasharray=""/>
    <path fill="none" stroke="#eee" paint-order="fill stroke markers" d=" M 789.3639378197198 285.83064764195285 A 360 360 0 0 1 859.9859300644991 503.1827905362288" stroke-miterlimit="10" stroke-width="16" stroke-dasharray=""/>
    <path fill="none" stroke="#eee" paint-order="fill stroke markers" d=" M 793.1055324963825 709.0194890913574 A 360 360 0 0 1 608.2147564463188 843.3505009276437" stroke-miterlimit="10" stroke-width="16" stroke-dasharray=""/>
    <path fill="none" stroke="#eee" paint-order="fill stroke markers" d=" M 391.78524355368125 843.3505009276438 A 120.34285714285714 120.34285714285714 0 0 1 608.2147564463187 843.3505009276438" stroke-miterlimit="10" stroke-width="16" stroke-dasharray=""/>
    <path fill="none" stroke="#eee" paint-order="fill stroke markers" d=" M 569.1960747749074 784.8176974017846 A 23.142857142857142 23.142857142857142 0 1 1 569.1960632034799 784.7945545484988" stroke-miterlimit="10" stroke-width="16" stroke-dasharray=""/>
    <path fill="none" stroke="#eee" paint-order="fill stroke markers" d=" M 793.1055324963824 709.0194890913574 A 120.34285714285714 120.34285714285714 0 0 1 859.9859300644991 503.1827905362287" stroke-miterlimit="10" stroke-width="16" stroke-dasharray=""/>
    <path fill="none" stroke="#eee" paint-order="fill stroke markers" d=" M 789.3639378197199 285.83064764195296 A 120.34285714285714 120.34285714285714 0 0 1 614.2687838052844 158.61657180281705" stroke-miterlimit="10" stroke-width="16" stroke-dasharray=""/>
    <path fill="none" stroke="#eee" paint-order="fill stroke markers" d=" M 523.1428571428571 140 A 23.142857142857142 23.142857142857142 0 1 1 523.1428455714296 139.97685714671428" stroke-miterlimit="10" stroke-width="16" stroke-dasharray=""/>
    <path fill="none" stroke="#eee" paint-order="fill stroke markers" d=" M 328.0821227035122 231.52193172385677 A 23.142857142857142 23.142857142857142 0 1 1 328.08211113208455 231.49878887057105" stroke-miterlimit="10" stroke-width="16" stroke-dasharray=""/>
    <path fill="none" stroke="#eee" paint-order="fill stroke markers" d=" M 511.5981042230171 776.2173332917565 L 671.7395383554019 283.35267784288055" stroke-miterlimit="10" stroke-width="16" stroke-dasharray=""/>
    <path fill="none" stroke="#eee" paint-order="fill stroke markers" d=" M 597.8130200722005 825.8928222671785 L 779.7166067575706 693.7321305435474" stroke-miterlimit="10" stroke-width="16" stroke-dasharray=""/>
    <path fill="none" stroke="#eee" paint-order="fill stroke markers" d=" M 799.9780779875338 529.5878256180703 L 725.2960754861451 299.740255996265" stroke-miterlimit="10" stroke-width="16" stroke-dasharray=""/>
    <path fill="none" stroke="#eee" paint-order="fill stroke markers" d=" M 821.1206692150032 515.5886745728191 L 750.629285623304 298.63850377994027" stroke-miterlimit="10" stroke-width="16" stroke-dasharray=""/>
    <path fill="none" stroke="#eee" paint-order="fill stroke markers" d=" M 489.5996226639222 160.67423488310735 L 166.76560814824614 802.4150129990105" stroke-miterlimit="10" stroke-width="16" stroke-dasharray=""/>
  </g>
</svg>
