<svg xmlns="http://www.w3.org/2000/svg" viewBox="0 0 800 600" width="800" height="600">
<rect x="0" y="0" width="800" height="600" fill="#fafafa" rx="8"/>
<text x="400" y="30" text-anchor="middle" font-size="16" font-weight="bold" font-family="sans-serif" fill="#111">BGE Embedding Space — Tool vs RAG Queries</text>
<line x1="60" y1="540" x2="740" y2="540" stroke="#ccc" stroke-width="1"/>
<line x1="60" y1="60" x2="60" y2="540" stroke="#ccc" stroke-width="1"/>
<text x="745" y="544" font-size="10" font-family="monospace" fill="#888">PC1</text>
<text x="55" y="55" text-anchor="end" font-size="10" font-family="monospace" fill="#888">PC2</text>
<line x1="60" y1="540" x2="740" y2="540" stroke="#eee" stroke-width="1"/>
<line x1="60" y1="60" x2="60" y2="540" stroke="#eee" stroke-width="1"/>
<line x1="60" y1="420" x2="740" y2="420" stroke="#eee" stroke-width="1"/>
<line x1="230" y1="60" x2="230" y2="540" stroke="#eee" stroke-width="1"/>
<text x="230" y="555" text-anchor="middle" font-size="9" font-family="monospace" fill="#aaa">-0.11</text>
<text x="52" y="423" text-anchor="end" font-size="9" font-family="monospace" fill="#aaa">-0.10</text>
<line x1="60" y1="300" x2="740" y2="300" stroke="#eee" stroke-width="1"/>
<line x1="400" y1="60" x2="400" y2="540" stroke="#eee" stroke-width="1"/>
<text x="400" y="555" text-anchor="middle" font-size="9" font-family="monospace" fill="#aaa">0.14</text>
<text x="52" y="303" text-anchor="end" font-size="9" font-family="monospace" fill="#aaa">0.12</text>
<line x1="60" y1="180" x2="740" y2="180" stroke="#eee" stroke-width="1"/>
<line x1="570" y1="60" x2="570" y2="540" stroke="#eee" stroke-width="1"/>
<text x="570" y="555" text-anchor="middle" font-size="9" font-family="monospace" fill="#aaa">0.39</text>
<text x="52" y="183" text-anchor="end" font-size="9" font-family="monospace" fill="#aaa">0.35</text>
<line x1="60" y1="60" x2="740" y2="60" stroke="#eee" stroke-width="1"/>
<line x1="740" y1="60" x2="740" y2="540" stroke="#eee" stroke-width="1"/>
<text x="740" y="555" text-anchor="middle" font-size="9" font-family="monospace" fill="#aaa">0.64</text>
<text x="52" y="63" text-anchor="end" font-size="9" font-family="monospace" fill="#aaa">0.57</text>
<polygon points="307.8,195.4 309.7,200.8 315.4,200.9 310.8,204.4 312.5,209.9 307.8,206.6 303.1,209.9 304.7,204.4 300.2,200.9 305.9,200.8" fill="#3b82f6" opacity="0.6"/>
<polygon points="210.9,396.8 212.8,402.2 218.5,402.3 213.9,405.8 215.6,411.3 210.9,408.0 206.2,411.3 207.8,405.8 203.3,402.3 209.0,402.2" fill="#22c55e" opacity="0.6"/>
<circle cx="195.4" cy="259.2" r="5" fill="#3b82f6" stroke="#fff" stroke-width="1.5" />
<text x="203.4" y="263.2" font-size="11" font-family="monospace" fill="#333">Search GitHub for Daniel's repositories</text>
<circle cx="218.9" cy="222.2" r="5" fill="#3b82f6" stroke="#fff" stroke-width="1.5" />
<text x="226.9" y="226.2" font-size="11" font-family="monospace" fill="#333">Find Daniel's open issues on GitHub</text>
<circle cx="168.2" cy="354.2" r="5" fill="#3b82f6" stroke="#fff" stroke-width="1.5" />
<text x="176.2" y="358.2" font-size="11" font-family="monospace" fill="#333">What commits has Daniel made</text>
<circle cx="466.3" cy="157.2" r="5" fill="#3b82f6" stroke="#fff" stroke-width="1.5" />
<text x="474.3" y="161.2" font-size="11" font-family="monospace" fill="#333">How many stars does woss-io have</text>
<circle cx="407.5" cy="100.0" r="5" fill="#3b82f6" stroke="#fff" stroke-width="1.5" />
<text x="415.5" y="104.0" font-size="11" font-family="monospace" fill="#333">Show me the open issues on woss.io</text>
<circle cx="390.3" cy="127.5" r="5" fill="#3b82f6" stroke="#fff" stroke-width="1.5" />
<text x="398.3" y="131.5" font-size="11" font-family="monospace" fill="#333">Who contributed to woss-io recently</text>
<circle cx="300.4" cy="438.8" r="5" fill="#22c55e" stroke="#fff" stroke-width="1.5" />
<text x="308.4" y="442.8" font-size="11" font-family="monospace" fill="#333">Tell me about Daniel</text>
<circle cx="236.2" cy="438.2" r="5" fill="#22c55e" stroke="#fff" stroke-width="1.5" />
<text x="244.2" y="442.2" font-size="11" font-family="monospace" fill="#333">Describe Daniel's work experience</text>
<circle cx="116.7" cy="402.5" r="5" fill="#22c55e" stroke="#fff" stroke-width="1.5" />
<text x="124.7" y="406.5" font-size="11" font-family="monospace" fill="#333">What projects has Daniel founded?</text>
<circle cx="167.6" cy="435.8" r="5" fill="#22c55e" stroke="#fff" stroke-width="1.5" />
<text x="175.6" y="439.8" font-size="11" font-family="monospace" fill="#333">What skills and technologies does Daniel</text>
<circle cx="480.3" cy="150.1" r="5" fill="#22c55e" stroke="#fff" stroke-width="1.5" />
<text x="488.3" y="154.1" font-size="11" font-family="monospace" fill="#333">Tell me about woss.io</text>
<circle cx="224.1" cy="368.6" r="5" fill="#22c55e" stroke="#fff" stroke-width="1.5" />
<text x="232.1" y="372.6" font-size="11" font-family="monospace" fill="#333">Tell me about Daniel's experience with c</text>
<circle cx="151.4" cy="359.9" r="5" fill="#22c55e" stroke="#fff" stroke-width="1.5" />
<text x="159.4" y="363.9" font-size="11" font-family="monospace" fill="#333">What DevOps and cloud experience does Da</text>
<circle cx="156.6" cy="405.9" r="5" fill="#22c55e" stroke="#fff" stroke-width="1.5" />
<text x="164.6" y="409.9" font-size="11" font-family="monospace" fill="#333">How has Daniel grown as a software devel</text>
<circle cx="190.8" cy="451.8" r="5" fill="#22c55e" stroke="#fff" stroke-width="1.5" />
<text x="198.8" y="455.8" font-size="11" font-family="monospace" fill="#333">What did Daniel learn building Anagolay </text>
<circle cx="208.5" cy="458.2" r="5" fill="#22c55e" stroke="#fff" stroke-width="1.5" />
<text x="216.5" y="462.2" font-size="11" font-family="monospace" fill="#333">What did Daniel learn building Macula</text>
<circle cx="225.3" cy="291.5" r="5" fill="#22c55e" stroke="#fff" stroke-width="1.5" />
<text x="233.3" y="295.5" font-size="11" font-family="monospace" fill="#333">What did Daniel learn building Woss.io</text>
<circle cx="214.8" cy="462.5" r="5" fill="#22c55e" stroke="#fff" stroke-width="1.5" />
<text x="222.8" y="466.5" font-size="11" font-family="monospace" fill="#333">Tell me about Daniel's entrepreneurial j</text>
<circle cx="208.1" cy="457.9" r="5" fill="#22c55e" stroke="#fff" stroke-width="1.5" />
<text x="216.1" y="461.9" font-size="11" font-family="monospace" fill="#333">What leadership lessons did Daniel learn</text>
<circle cx="163.5" cy="369.7" r="5" fill="#22c55e" stroke="#fff" stroke-width="1.5" />
<text x="171.5" y="373.7" font-size="11" font-family="monospace" fill="#333">How did Daniel's platform engineering sk</text>
<circle cx="184.0" cy="490.4" r="5" fill="#22c55e" stroke="#fff" stroke-width="1.5" />
<text x="192.0" y="494.4" font-size="11" font-family="monospace" fill="#333">What did Daniel learn from being a digit</text>
<circle cx="160.8" cy="442.7" r="5" fill="#22c55e" stroke="#fff" stroke-width="1.5" />
<text x="168.8" y="446.7" font-size="11" font-family="monospace" fill="#333">How did Daniel develop his data visualiz</text>
<circle cx="196.0" cy="457.3" r="5" fill="#22c55e" stroke="#fff" stroke-width="1.5" />
<text x="204.0" y="461.3" font-size="11" font-family="monospace" fill="#333">What did Daniel learn from his first sta</text>
<circle cx="225.1" cy="338.5" r="5" fill="#f59e0b" stroke="#fff" stroke-width="1.5" />
<text x="233.1" y="342.5" font-size="11" font-family="monospace" fill="#333">Show me Daniel's portfolio</text>
<circle cx="191.5" cy="342.5" r="5" fill="#f59e0b" stroke="#fff" stroke-width="1.5" />
<text x="199.5" y="346.5" font-size="11" font-family="monospace" fill="#333">Show me Daniel's AI projects and impleme</text>
<circle cx="203.8" cy="405.1" r="5" fill="#f59e0b" stroke="#fff" stroke-width="1.5" />
<text x="211.8" y="409.1" font-size="11" font-family="monospace" fill="#333">Daniel's experience and his recent PRs</text>
<circle cx="127.6" cy="298.6" r="5" fill="#f59e0b" stroke="#fff" stroke-width="1.5" />
<text x="135.6" y="302.6" font-size="11" font-family="monospace" fill="#333">What open source projects has Daniel con</text>
<circle cx="213.2" cy="307.4" r="5" fill="#f59e0b" stroke="#fff" stroke-width="1.5" />
<text x="221.2" y="311.4" font-size="11" font-family="monospace" fill="#333">Tell me about Daniel and his GitHub acti</text>
<circle cx="154.1" cy="399.7" r="5" fill="#f59e0b" stroke="#fff" stroke-width="1.5" />
<text x="162.1" y="403.7" font-size="11" font-family="monospace" fill="#333">What grants has Daniel received</text>
<circle cx="665.8" cy="500.0" r="5" fill="#a855f7" stroke="#fff" stroke-width="1.5" />
<text x="673.8" y="504.0" font-size="11" font-family="monospace" fill="#333">who is haistlin?</text>
<circle cx="683.3" cy="496.4" r="5" fill="#a855f7" stroke="#fff" stroke-width="1.5" />
<text x="691.3" y="500.4" font-size="11" font-family="monospace" fill="#333">what is haistlin?</text>
<circle cx="649.7" cy="466.9" r="5" fill="#a855f7" stroke="#fff" stroke-width="1.5" />
<text x="657.7" y="470.9" font-size="11" font-family="monospace" fill="#333">tell me about haistlin</text>
<circle cx="566.0" cy="351.3" r="5" fill="#a855f7" stroke="#fff" stroke-width="1.5" />
<text x="574.0" y="355.3" font-size="11" font-family="monospace" fill="#333">who are you?</text>
<circle cx="567.4" cy="368.6" r="5" fill="#a855f7" stroke="#fff" stroke-width="1.5" />
<text x="575.4" y="372.6" font-size="11" font-family="monospace" fill="#333">what is your name?</text>
<circle cx="663.4" cy="497.1" r="5" fill="#a855f7" stroke="#fff" stroke-width="1.5" />
<text x="671.4" y="501.1" font-size="11" font-family="monospace" fill="#333">explain the name haistlin</text>
<circle cx="529.7" cy="386.5" r="5" fill="#a855f7" stroke="#fff" stroke-width="1.5" />
<text x="537.7" y="390.5" font-size="11" font-family="monospace" fill="#333">tell me about yourself</text>
<circle cx="480.1" cy="351.7" r="5" fill="#a855f7" stroke="#fff" stroke-width="1.5" />
<text x="488.1" y="355.7" font-size="11" font-family="monospace" fill="#333">what do you do?</text>
<rect x="650" y="40" width="140" height="90" fill="white" stroke="#ddd" rx="4"/>
<text x="660" y="55" font-size="11" font-weight="bold" font-family="sans-serif" fill="#333">Legend</text>
<circle cx="665" cy="70" r="4" fill="#3b82f6" stroke="white" stroke-width="1"/>
<text x="676" y="74" font-size="10" font-family="sans-serif" fill="#555">Tool SEED_QUERIES</text>
<circle cx="665" cy="92" r="4" fill="#22c55e" stroke="white" stroke-width="1"/>
<text x="676" y="96" font-size="10" font-family="sans-serif" fill="#555">RAG SEED_QUERIES</text>
<circle cx="665" cy="114" r="4" fill="#f59e0b" stroke="white" stroke-width="1"/>
<text x="676" y="118" font-size="10" font-family="sans-serif" fill="#555">Ambiguous</text>
<text x="660" y="140" font-size="9" font-family="sans-serif" fill="#999">★ centroids</text>
</svg>