<svg xmlns="http://www.w3.org/2000/svg" viewBox="0 0 800 600" width="800" height="600">
<rect x="0" y="0" width="800" height="600" fill="#fafafa" rx="8"/>
<text x="400" y="30" text-anchor="middle" font-size="16" font-weight="bold" font-family="sans-serif" fill="#111">BGE Embedding Space — Tool vs RAG Queries</text>
<line x1="60" y1="540" x2="740" y2="540" stroke="#ccc" stroke-width="1"/>
<line x1="60" y1="60" x2="60" y2="540" stroke="#ccc" stroke-width="1"/>
<text x="745" y="544" font-size="10" font-family="monospace" fill="#888">PC1</text>
<text x="55" y="55" text-anchor="end" font-size="10" font-family="monospace" fill="#888">PC2</text>
<line x1="60" y1="540" x2="740" y2="540" stroke="#eee" stroke-width="1"/>
<line x1="60" y1="60" x2="60" y2="540" stroke="#eee" stroke-width="1"/>
<line x1="60" y1="420" x2="740" y2="420" stroke="#eee" stroke-width="1"/>
<line x1="230" y1="60" x2="230" y2="540" stroke="#eee" stroke-width="1"/>
<text x="230" y="555" text-anchor="middle" font-size="9" font-family="monospace" fill="#aaa">-0.39</text>
<text x="52" y="423" text-anchor="end" font-size="9" font-family="monospace" fill="#aaa">-0.09</text>
<line x1="60" y1="300" x2="740" y2="300" stroke="#eee" stroke-width="1"/>
<line x1="400" y1="60" x2="400" y2="540" stroke="#eee" stroke-width="1"/>
<text x="400" y="555" text-anchor="middle" font-size="9" font-family="monospace" fill="#aaa">-0.13</text>
<text x="52" y="303" text-anchor="end" font-size="9" font-family="monospace" fill="#aaa">0.13</text>
<line x1="60" y1="180.00000000000006" x2="740" y2="180.00000000000006" stroke="#eee" stroke-width="1"/>
<line x1="570" y1="60" x2="570" y2="540" stroke="#eee" stroke-width="1"/>
<text x="570" y="555" text-anchor="middle" font-size="9" font-family="monospace" fill="#aaa">0.12</text>
<text x="52" y="183.00000000000006" text-anchor="end" font-size="9" font-family="monospace" fill="#aaa">0.36</text>
<line x1="60" y1="60" x2="740" y2="60" stroke="#eee" stroke-width="1"/>
<line x1="740" y1="60" x2="740" y2="540" stroke="#eee" stroke-width="1"/>
<text x="740" y="555" text-anchor="middle" font-size="9" font-family="monospace" fill="#aaa">0.37</text>
<text x="52" y="63" text-anchor="end" font-size="9" font-family="monospace" fill="#aaa">0.58</text>
<polygon points="505.0,197.8 506.9,203.2 512.6,203.4 508.0,206.8 509.7,212.3 505.0,209.0 500.3,212.3 502.0,206.8 497.4,203.4 503.1,203.2" fill="#3b82f6" opacity="0.6"/>
<polygon points="590.7,404.6 592.6,410.0 598.3,410.1 593.7,413.6 595.4,419.1 590.7,415.8 586.0,419.1 587.6,413.6 583.1,410.1 588.8,410.0" fill="#22c55e" opacity="0.6"/>
<polygon points="196.8,415.6 198.7,421.1 204.4,421.2 199.9,424.6 201.5,430.1 196.8,426.8 192.1,430.1 193.8,424.6 189.2,421.2 195.0,421.1" fill="#a855f7" opacity="0.6"/>
<circle cx="612.6" cy="265.4" r="5" fill="#3b82f6" stroke="#fff" stroke-width="1.5" />
<text x="620.6" y="269.4" font-size="11" font-family="monospace" fill="#333">Search GitHub for Daniel's repositories</text>
<circle cx="590.5" cy="229.3" r="5" fill="#3b82f6" stroke="#fff" stroke-width="1.5" />
<text x="598.5" y="233.3" font-size="11" font-family="monospace" fill="#333">Find Daniel's open issues on GitHub</text>
<circle cx="635.1" cy="362.3" r="5" fill="#3b82f6" stroke="#fff" stroke-width="1.5" />
<text x="643.1" y="366.3" font-size="11" font-family="monospace" fill="#333">What commits has Daniel made</text>
<circle cx="352.6" cy="152.2" r="5" fill="#3b82f6" stroke="#fff" stroke-width="1.5" />
<text x="360.6" y="156.2" font-size="11" font-family="monospace" fill="#333">How many stars does woss-io have</text>
<circle cx="411.0" cy="100.0" r="5" fill="#3b82f6" stroke="#fff" stroke-width="1.5" />
<text x="419.0" y="104.0" font-size="11" font-family="monospace" fill="#333">Show me the open issues on woss.io</text>
<circle cx="428.3" cy="125.8" r="5" fill="#3b82f6" stroke="#fff" stroke-width="1.5" />
<text x="436.3" y="129.8" font-size="11" font-family="monospace" fill="#333">Who contributed to woss-io recently</text>
<circle cx="496.7" cy="448.1" r="5" fill="#22c55e" stroke="#fff" stroke-width="1.5" />
<text x="504.7" y="452.1" font-size="11" font-family="monospace" fill="#333">Tell me about Daniel</text>
<circle cx="561.4" cy="449.1" r="5" fill="#22c55e" stroke="#fff" stroke-width="1.5" />
<text x="569.4" y="453.1" font-size="11" font-family="monospace" fill="#333">Describe Daniel's work experience</text>
<circle cx="683.3" cy="413.6" r="5" fill="#22c55e" stroke="#fff" stroke-width="1.5" />
<text x="691.3" y="417.6" font-size="11" font-family="monospace" fill="#333">What projects has Daniel founded?</text>
<circle cx="631.9" cy="444.8" r="5" fill="#22c55e" stroke="#fff" stroke-width="1.5" />
<text x="639.9" y="448.8" font-size="11" font-family="monospace" fill="#333">What skills and technologies does Daniel</text>
<circle cx="337.5" cy="147.0" r="5" fill="#22c55e" stroke="#fff" stroke-width="1.5" />
<text x="345.5" y="151.0" font-size="11" font-family="monospace" fill="#333">Tell me about woss.io</text>
<circle cx="578.3" cy="377.6" r="5" fill="#22c55e" stroke="#fff" stroke-width="1.5" />
<text x="586.3" y="381.6" font-size="11" font-family="monospace" fill="#333">Tell me about Daniel's experience with c</text>
<circle cx="651.9" cy="369.5" r="5" fill="#22c55e" stroke="#fff" stroke-width="1.5" />
<text x="659.9" y="373.5" font-size="11" font-family="monospace" fill="#333">What DevOps and cloud experience does Da</text>
<circle cx="644.7" cy="414.7" r="5" fill="#22c55e" stroke="#fff" stroke-width="1.5" />
<text x="652.7" y="418.7" font-size="11" font-family="monospace" fill="#333">How has Daniel grown as a software devel</text>
<circle cx="608.9" cy="458.9" r="5" fill="#22c55e" stroke="#fff" stroke-width="1.5" />
<text x="616.9" y="462.9" font-size="11" font-family="monospace" fill="#333">What did Daniel learn building Anagolay </text>
<circle cx="591.8" cy="463.5" r="5" fill="#22c55e" stroke="#fff" stroke-width="1.5" />
<text x="599.8" y="467.5" font-size="11" font-family="monospace" fill="#333">What did Daniel learn building Macula</text>
<circle cx="585.9" cy="294.4" r="5" fill="#22c55e" stroke="#fff" stroke-width="1.5" />
<text x="593.9" y="298.4" font-size="11" font-family="monospace" fill="#333">What did Daniel learn building Woss.io</text>
<circle cx="581.8" cy="474.0" r="5" fill="#22c55e" stroke="#fff" stroke-width="1.5" />
<text x="589.8" y="478.0" font-size="11" font-family="monospace" fill="#333">Tell me about Daniel's entrepreneurial j</text>
<circle cx="591.6" cy="465.0" r="5" fill="#22c55e" stroke="#fff" stroke-width="1.5" />
<text x="599.6" y="469.0" font-size="11" font-family="monospace" fill="#333">What leadership lessons did Daniel learn</text>
<circle cx="640.4" cy="378.3" r="5" fill="#22c55e" stroke="#fff" stroke-width="1.5" />
<text x="648.4" y="382.3" font-size="11" font-family="monospace" fill="#333">How did Daniel's platform engineering sk</text>
<circle cx="613.0" cy="500.0" r="5" fill="#22c55e" stroke="#fff" stroke-width="1.5" />
<text x="621.0" y="504.0" font-size="11" font-family="monospace" fill="#333">What did Daniel learn from being a digit</text>
<circle cx="639.2" cy="451.1" r="5" fill="#22c55e" stroke="#fff" stroke-width="1.5" />
<text x="647.2" y="455.1" font-size="11" font-family="monospace" fill="#333">How did Daniel develop his data visualiz</text>
<circle cx="603.5" cy="464.8" r="5" fill="#22c55e" stroke="#fff" stroke-width="1.5" />
<text x="611.5" y="468.8" font-size="11" font-family="monospace" fill="#333">What did Daniel learn from his first sta</text>
<circle cx="577.9" cy="348.1" r="5" fill="#f59e0b" stroke="#fff" stroke-width="1.5" />
<text x="585.9" y="352.1" font-size="11" font-family="monospace" fill="#333">Show me Daniel's portfolio</text>
<circle cx="612.2" cy="350.4" r="5" fill="#f59e0b" stroke="#fff" stroke-width="1.5" />
<text x="620.2" y="354.4" font-size="11" font-family="monospace" fill="#333">Show me Daniel's AI projects and impleme</text>
<circle cx="597.3" cy="414.0" r="5" fill="#f59e0b" stroke="#fff" stroke-width="1.5" />
<text x="605.3" y="418.0" font-size="11" font-family="monospace" fill="#333">Daniel's experience and his recent PRs</text>
<circle cx="678.1" cy="307.6" r="5" fill="#f59e0b" stroke="#fff" stroke-width="1.5" />
<text x="686.1" y="311.6" font-size="11" font-family="monospace" fill="#333">What open source projects has Daniel con</text>
<circle cx="591.8" cy="315.5" r="5" fill="#f59e0b" stroke="#fff" stroke-width="1.5" />
<text x="599.8" y="319.5" font-size="11" font-family="monospace" fill="#333">Tell me about Daniel and his GitHub acti</text>
<circle cx="646.8" cy="408.9" r="5" fill="#f59e0b" stroke="#fff" stroke-width="1.5" />
<text x="654.8" y="412.9" font-size="11" font-family="monospace" fill="#333">What grants has Daniel received</text>
<circle cx="133.6" cy="484.7" r="5" fill="#a855f7" stroke="#fff" stroke-width="1.5" />
<text x="141.6" y="488.7" font-size="11" font-family="monospace" fill="#333">who is haistlin?</text>
<circle cx="116.7" cy="479.7" r="5" fill="#a855f7" stroke="#fff" stroke-width="1.5" />
<text x="124.7" y="483.7" font-size="11" font-family="monospace" fill="#333">what is haistlin?</text>
<circle cx="150.9" cy="454.8" r="5" fill="#a855f7" stroke="#fff" stroke-width="1.5" />
<text x="158.9" y="458.8" font-size="11" font-family="monospace" fill="#333">tell me about haistlin</text>
<circle cx="229.2" cy="358.1" r="5" fill="#a855f7" stroke="#fff" stroke-width="1.5" />
<text x="237.2" y="362.1" font-size="11" font-family="monospace" fill="#333">who are you?</text>
<circle cx="227.4" cy="374.6" r="5" fill="#a855f7" stroke="#fff" stroke-width="1.5" />
<text x="235.4" y="378.6" font-size="11" font-family="monospace" fill="#333">what is your name?</text>
<circle cx="135.9" cy="483.0" r="5" fill="#a855f7" stroke="#fff" stroke-width="1.5" />
<text x="143.9" y="487.0" font-size="11" font-family="monospace" fill="#333">explain the name haistlin</text>
<circle cx="265.3" cy="394.5" r="5" fill="#a855f7" stroke="#fff" stroke-width="1.5" />
<text x="273.3" y="398.5" font-size="11" font-family="monospace" fill="#333">tell me about yourself</text>
<circle cx="315.8" cy="359.8" r="5" fill="#a855f7" stroke="#fff" stroke-width="1.5" />
<text x="323.8" y="363.8" font-size="11" font-family="monospace" fill="#333">what do you do?</text>
<rect x="650" y="40" width="140" height="120" fill="white" stroke="#ddd" rx="4"/>
<text x="660" y="55" font-size="11" font-weight="bold" font-family="sans-serif" fill="#333">Legend</text>
<circle cx="665" cy="70" r="4" fill="#3b82f6" stroke="white" stroke-width="1"/>
<text x="676" y="74" font-size="10" font-family="sans-serif" fill="#555">Tool SEED_QUERIES</text>
<circle cx="665" cy="92" r="4" fill="#22c55e" stroke="white" stroke-width="1"/>
<text x="676" y="96" font-size="10" font-family="sans-serif" fill="#555">RAG SEED_QUERIES</text>
<circle cx="665" cy="114" r="4" fill="#f59e0b" stroke="white" stroke-width="1"/>
<text x="676" y="118" font-size="10" font-family="sans-serif" fill="#555">Ambiguous</text>
<circle cx="665" cy="136" r="4" fill="#a855f7" stroke="white" stroke-width="1"/>
<text x="676" y="140" font-size="10" font-family="sans-serif" fill="#555">Meta</text>
<text x="660" y="170" font-size="9" font-family="sans-serif" fill="#999">★ centroids</text>
</svg>