
<svg width="29px" height="39px" viewBox="0 0 29 39" version="1.1" xmlns="http://www.w3.org/2000/svg" xmlns:xlink="http://www.w3.org/1999/xlink">
    <!-- Generator: Sketch 44.1 (41455) - http://www.bohemiancoding.com/sketch -->
    <desc>Created with Sketch.</desc>
    <defs></defs>
    <g id="Page-1" stroke="none" stroke-width="1" fill="none" fill-rule="evenodd">
        <g id="Artboard-2" fill-rule="nonzero" fill="#000000">
            <g id="noun_143185_cc">
                <path d="M0,0 L0,38.7790698 L29,38.7790698 L29,0 L0,0 Z M14.5,4.63662791 C16.3546512,4.63662791 17.7877907,6.15406977 17.7877907,7.9244186 C17.7877907,9.69476744 16.3546512,11.2122093 14.5,11.2122093 C12.6453488,11.2122093 11.2122093,9.69476744 11.2122093,7.9244186 C11.2122093,6.15406977 12.6453488,4.63662791 14.5,4.63662791 Z M14.5,11.7180233 C18.7994186,11.7180233 22.3401163,15.1744186 22.3401163,19.5581395 L6.65988372,19.5581395 C6.65988372,15.1744186 10.2005814,11.7180233 14.5,11.7180233 Z M25.375,33.5523256 L3.625,33.5523256 C3.11918605,33.5523256 2.78197674,33.2151163 2.78197674,32.7093023 C2.78197674,32.2034884 3.11918605,31.8662791 3.625,31.8662791 L25.375,31.8662791 C25.880814,31.8662791 26.2180233,32.2034884 26.2180233,32.7093023 C26.2180233,33.2151163 25.7965116,33.5523256 25.375,33.5523256 Z M25.375,27.0610465 L3.625,27.0610465 C3.11918605,27.0610465 2.78197674,26.7238372 2.78197674,26.2180233 C2.78197674,25.7122093 3.11918605,25.375 3.625,25.375 L25.375,25.375 C25.880814,25.375 26.2180233,25.7122093 26.2180233,26.2180233 C26.2180233,26.7238372 25.7965116,27.0610465 25.375,27.0610465 Z" id="Shape"></path>
            </g>
        </g>
    </g>
</svg>