<svg xmlns="http://www.w3.org/2000/svg" viewBox="0 0 800 600" width="800" height="600">
<rect x="0" y="0" width="800" height="600" fill="#fafafa" rx="8"/>
<text x="400" y="30" text-anchor="middle" font-size="16" font-weight="bold" font-family="sans-serif" fill="#111">BGE Embedding Space — Tool vs RAG Queries</text>
<line x1="60" y1="540" x2="740" y2="540" stroke="#ccc" stroke-width="1"/>
<line x1="60" y1="60" x2="60" y2="540" stroke="#ccc" stroke-width="1"/>
<text x="745" y="544" font-size="10" font-family="monospace" fill="#888">PC1</text>
<text x="55" y="55" text-anchor="end" font-size="10" font-family="monospace" fill="#888">PC2</text>
<line x1="60" y1="540" x2="740" y2="540" stroke="#eee" stroke-width="1"/>
<line x1="60" y1="60" x2="60" y2="540" stroke="#eee" stroke-width="1"/>
<line x1="60" y1="420" x2="740" y2="420" stroke="#eee" stroke-width="1"/>
<line x1="230" y1="60" x2="230" y2="540" stroke="#eee" stroke-width="1"/>
<text x="230" y="555" text-anchor="middle" font-size="9" font-family="monospace" fill="#aaa">-0.39</text>
<text x="52" y="423" text-anchor="end" font-size="9" font-family="monospace" fill="#aaa">-0.22</text>
<line x1="60" y1="300" x2="740" y2="300" stroke="#eee" stroke-width="1"/>
<line x1="400" y1="60" x2="400" y2="540" stroke="#eee" stroke-width="1"/>
<text x="400" y="555" text-anchor="middle" font-size="9" font-family="monospace" fill="#aaa">-0.13</text>
<text x="52" y="303" text-anchor="end" font-size="9" font-family="monospace" fill="#aaa">-0.02</text>
<line x1="60" y1="180" x2="740" y2="180" stroke="#eee" stroke-width="1"/>
<line x1="570" y1="60" x2="570" y2="540" stroke="#eee" stroke-width="1"/>
<text x="570" y="555" text-anchor="middle" font-size="9" font-family="monospace" fill="#aaa">0.14</text>
<text x="52" y="183" text-anchor="end" font-size="9" font-family="monospace" fill="#aaa">0.17</text>
<line x1="60" y1="60" x2="740" y2="60" stroke="#eee" stroke-width="1"/>
<line x1="740" y1="60" x2="740" y2="540" stroke="#eee" stroke-width="1"/>
<text x="740" y="555" text-anchor="middle" font-size="9" font-family="monospace" fill="#aaa">0.40</text>
<text x="52" y="63" text-anchor="end" font-size="9" font-family="monospace" fill="#aaa">0.37</text>
<polygon points="268.2,278.0 270.1,283.4 275.8,283.5 271.2,287.0 272.9,292.4 268.2,289.2 263.5,292.4 265.1,287.0 260.6,283.5 266.3,283.4" fill="#3b82f6" opacity="0.6"/>
<polygon points="612.4,269.2 614.3,274.6 620.0,274.7 615.5,278.2 617.1,283.7 612.4,280.4 607.7,283.7 609.4,278.2 604.8,274.7 610.5,274.6" fill="#22c55e" opacity="0.6"/>
<circle cx="351.2" cy="456.4" r="5" fill="#3b82f6" stroke="#fff" stroke-width="1.5" />
<text x="359.2" y="460.4" font-size="11" font-family="monospace" fill="#333">show me Daniel's pull requests</text>
<circle cx="116.7" cy="235.7" r="5" fill="#3b82f6" stroke="#fff" stroke-width="1.5" />
<text x="124.7" y="239.7" font-size="11" font-family="monospace" fill="#333">search GitHub for my repositories</text>
<circle cx="157.6" cy="247.0" r="5" fill="#3b82f6" stroke="#fff" stroke-width="1.5" />
<text x="165.6" y="251.0" font-size="11" font-family="monospace" fill="#333">find my open issues on GitHub</text>
<circle cx="499.2" cy="377.1" r="5" fill="#3b82f6" stroke="#fff" stroke-width="1.5" />
<text x="507.2" y="381.1" font-size="11" font-family="monospace" fill="#333">what commits has Daniel made</text>
<circle cx="146.3" cy="325.1" r="5" fill="#3b82f6" stroke="#fff" stroke-width="1.5" />
<text x="154.3" y="329.1" font-size="11" font-family="monospace" fill="#333">list pull requests on my repos</text>
<circle cx="348.6" cy="100.0" r="5" fill="#3b82f6" stroke="#fff" stroke-width="1.5" />
<text x="356.6" y="104.0" font-size="11" font-family="monospace" fill="#333">how many stars does woss-io have</text>
<circle cx="270.1" cy="291.3" r="5" fill="#3b82f6" stroke="#fff" stroke-width="1.5" />
<text x="278.1" y="295.3" font-size="11" font-family="monospace" fill="#333">show me the open issues on this project</text>
<circle cx="314.1" cy="146.9" r="5" fill="#3b82f6" stroke="#fff" stroke-width="1.5" />
<text x="322.1" y="150.9" font-size="11" font-family="monospace" fill="#333">who contributed to woss-io recently</text>
<circle cx="351.2" cy="456.4" r="5" fill="#3b82f6" stroke="#fff" stroke-width="1.5" />
<text x="359.2" y="460.4" font-size="11" font-family="monospace" fill="#333">Show me Daniel's pull requests</text>
<circle cx="127.0" cy="223.9" r="5" fill="#3b82f6" stroke="#fff" stroke-width="1.5" />
<text x="135.0" y="227.9" font-size="11" font-family="monospace" fill="#333">Search GitHub for open source contributi</text>
<circle cx="652.6" cy="340.9" r="5" fill="#22c55e" stroke="#fff" stroke-width="1.5" />
<text x="660.6" y="344.9" font-size="11" font-family="monospace" fill="#333">describe Daniel's work experience</text>
<circle cx="547.1" cy="359.7" r="5" fill="#22c55e" stroke="#fff" stroke-width="1.5" />
<text x="555.1" y="363.7" font-size="11" font-family="monospace" fill="#333">what projects did Daniel found</text>
<circle cx="661.7" cy="374.8" r="5" fill="#22c55e" stroke="#fff" stroke-width="1.5" />
<text x="669.7" y="378.8" font-size="11" font-family="monospace" fill="#333">tell me about Daniel's background</text>
<circle cx="639.8" cy="240.5" r="5" fill="#22c55e" stroke="#fff" stroke-width="1.5" />
<text x="647.8" y="244.5" font-size="11" font-family="monospace" fill="#333">what skills and technologies does Daniel</text>
<circle cx="635.0" cy="363.6" r="5" fill="#22c55e" stroke="#fff" stroke-width="1.5" />
<text x="643.0" y="367.6" font-size="11" font-family="monospace" fill="#333">where has Daniel worked before</text>
<circle cx="582.5" cy="489.2" r="5" fill="#22c55e" stroke="#fff" stroke-width="1.5" />
<text x="590.5" y="493.2" font-size="11" font-family="monospace" fill="#333">what grants has Daniel received</text>
<circle cx="585.6" cy="500.0" r="5" fill="#22c55e" stroke="#fff" stroke-width="1.5" />
<text x="593.6" y="504.0" font-size="11" font-family="monospace" fill="#333">What grants has Daniel received?</text>
<circle cx="434.5" cy="340.6" r="5" fill="#22c55e" stroke="#fff" stroke-width="1.5" />
<text x="442.5" y="344.6" font-size="11" font-family="monospace" fill="#333">what opensource projects has Daniel crea</text>
<circle cx="683.3" cy="295.2" r="5" fill="#22c55e" stroke="#fff" stroke-width="1.5" />
<text x="691.3" y="299.2" font-size="11" font-family="monospace" fill="#333">describe Daniel's career journey</text>
<circle cx="599.4" cy="200.5" r="5" fill="#22c55e" stroke="#fff" stroke-width="1.5" />
<text x="607.4" y="204.5" font-size="11" font-family="monospace" fill="#333">how has Daniel grown as a software devel</text>
<circle cx="596.2" cy="195.7" r="5" fill="#22c55e" stroke="#fff" stroke-width="1.5" />
<text x="604.2" y="199.7" font-size="11" font-family="monospace" fill="#333">what did Daniel learn building Anagolay </text>
<circle cx="668.6" cy="297.8" r="5" fill="#22c55e" stroke="#fff" stroke-width="1.5" />
<text x="676.6" y="301.8" font-size="11" font-family="monospace" fill="#333">tell me about Daniel's entrepreneurial j</text>
<circle cx="610.3" cy="107.9" r="5" fill="#22c55e" stroke="#fff" stroke-width="1.5" />
<text x="618.3" y="111.9" font-size="11" font-family="monospace" fill="#333">what leadership lessons did Daniel learn</text>
<circle cx="581.5" cy="109.1" r="5" fill="#22c55e" stroke="#fff" stroke-width="1.5" />
<text x="589.5" y="113.1" font-size="11" font-family="monospace" fill="#333">how did Daniel's platform engineering sk</text>
<circle cx="683.3" cy="138.9" r="5" fill="#22c55e" stroke="#fff" stroke-width="1.5" />
<text x="691.3" y="142.9" font-size="11" font-family="monospace" fill="#333">what did Daniel learn from being a digit</text>
<circle cx="631.9" cy="203.4" r="5" fill="#22c55e" stroke="#fff" stroke-width="1.5" />
<text x="639.9" y="207.4" font-size="11" font-family="monospace" fill="#333">how did Daniel develop his data visualiz</text>
<circle cx="617.9" cy="154.8" r="5" fill="#22c55e" stroke="#fff" stroke-width="1.5" />
<text x="625.9" y="158.8" font-size="11" font-family="monospace" fill="#333">what did Daniel learn from his first sta</text>
<circle cx="591.6" cy="325.5" r="5" fill="#f59e0b" stroke="#fff" stroke-width="1.5" />
<text x="599.6" y="329.5" font-size="11" font-family="monospace" fill="#333">Daniel's experience and his recent PRs</text>
<circle cx="438.9" cy="353.1" r="5" fill="#f59e0b" stroke="#fff" stroke-width="1.5" />
<text x="446.9" y="357.1" font-size="11" font-family="monospace" fill="#333">what open source projects has Daniel con</text>
<circle cx="428.6" cy="333.4" r="5" fill="#f59e0b" stroke="#fff" stroke-width="1.5" />
<text x="436.6" y="337.4" font-size="11" font-family="monospace" fill="#333">tell me about Daniel and his GitHub acti</text>
<rect x="650" y="40" width="140" height="90" fill="white" stroke="#ddd" rx="4"/>
<text x="660" y="55" font-size="11" font-weight="bold" font-family="sans-serif" fill="#333">Legend</text>
<circle cx="665" cy="70" r="4" fill="#3b82f6" stroke="white" stroke-width="1"/>
<text x="676" y="74" font-size="10" font-family="sans-serif" fill="#555">Tool queries</text>
<circle cx="665" cy="92" r="4" fill="#22c55e" stroke="white" stroke-width="1"/>
<text x="676" y="96" font-size="10" font-family="sans-serif" fill="#555">RAG queries</text>
<circle cx="665" cy="114" r="4" fill="#f59e0b" stroke="white" stroke-width="1"/>
<text x="676" y="118" font-size="10" font-family="sans-serif" fill="#555">Ambiguous</text>
<text x="660" y="140" font-size="9" font-family="sans-serif" fill="#999">★ centroids</text>
</svg>